<?xml version="1.0" standalone="no"?>
<!DOCTYPE svg PUBLIC "-//W3C//DTD SVG 20010904//EN"
 "http://www.w3.org/TR/2001/REC-SVG-20010904/DTD/svg10.dtd">
<svg version="1.0" xmlns="http://www.w3.org/2000/svg"
 width="105.000000pt" height="70.000000pt" viewBox="0 0 105.000000 70.000000"
 preserveAspectRatio="xMidYMid meet">

<g transform="translate(0.000000,70.000000) scale(0.100000,-0.100000)"
fill="#000000" stroke="none">
<path d="M444 650 c-71 -15 -137 -52 -194 -110 -138 -137 -157 -336 -48 -497
l29 -43 294 0 294 0 21 29 c11 17 33 56 47 88 23 49 27 72 27 149 1 85 -2 96
-37 166 -44 90 -103 148 -192 189 -69 33 -168 45 -241 29z m171 -25 c188 -49
310 -236 276 -421 -10 -55 -57 -164 -70 -164 -4 0 -11 8 -18 19 -6 10 -33 29
-60 42 -44 21 -61 23 -213 24 -181 0 -219 -8 -270 -55 l-31 -29 -24 37 c-14
21 -32 68 -42 106 -14 57 -15 80 -6 132 26 152 131 270 273 308 72 19 113 19
185 1z"/>
<path d="M445 496 c-66 -29 -114 -122 -100 -189 11 -51 43 -100 82 -127 52
-36 144 -36 196 0 51 35 81 93 81 155 0 101 -65 167 -168 172 -37 2 -73 -2
-91 -11z"/>
</g>
</svg>
